<?xml version="1.0" encoding="UTF-8"?><svg id="Layer_1" xmlns="http://www.w3.org/2000/svg" viewBox="0 0 472.91 176.99"><path d="M238.97,30.42c12.94-8.91,36.43-24.95,62.18-28.85,21.91-4.14,55.85-1.11,70.72,21.62,4.44,6.11,9.29,14.51,10.26,21.53-.4,5.95-9.99-.71-12.84-1.94-2.19-1.08-4.51-1.91-6.86-2.5-12.67-2.62-27.28-.55-37.23,8.28-8.62,7.62-12.82,20.97-8.67,31.28,7.4,17.15,29.15,21.47,52.42,21.6,36.24.33,77.23-10.92,102.98-25.72.51-.25.81-.35.93-.33.09.01.08.09,0,.21-1.31,1.33-2.57,1.97-5.04,3.62-20.99,13.2-52.85,21.77-78.71,25.06-15.61,2.02-30.52,3.58-45.93.72-22.22-3.51-41.17-18.63-36.03-40.73,1.42-7.24,4.9-14.13,9.94-19.5,11.41-12.71,31.4-14.14,47.22-10.23,4.75.97,2.05-1.43.58-2.81-2.58-2.29-7.71-6.36-15.3-9.71-7.81-3.52-17.1-5.91-25.27-5.93-12.07-.27-24.7,4.37-36.58,9.33-24.59,10.48-44.88,25.86-66.26,40.86-12.85,8.97-23.61,15.13-40.72,22.45-24.77,10.58-41.38,14.59-78.81,16.12-22.39.57-40.97-1.98-64.13-10.74-12.66-4.17-29.21-15.47-37.11-24.32-.21-.24-.38-.45-.5-.61-.33-.46-.21-.53.46-.15,1.61.9,3.42,2.35,5.2,3.56,24.56,17.91,52.75,25.76,84.6,24.54,61.46-2.4,108.77-39.67,148.43-66.64l.11-.07Z" fill="#fff"/><path d="M41.68,141.42h13.67c9.11,0,17.64,5.58,17.64,17.34s-10.04,17.34-18.37,17.34h-12.94v-34.69ZM52.46,170.52c7.74,0,14.06-3.33,14.06-11.76s-5.49-11.76-13.03-11.76h-5.63v23.52h4.61Z" fill="#fff"/><path d="M93.57,141.42h22.98v5.58h-16.81v8.53h15.92v5.58h-15.92v9.41h17.69v5.59h-23.86v-34.69Z" fill="#fff"/><path d="M138.21,141.42h22.98v5.58h-16.81v8.53h15.92v5.58h-15.92v9.41h17.69v5.59h-23.86v-34.69Z" fill="#fff"/><path d="M182.85,141.42h11.66c6.71,0,12.79,2.35,12.79,10.04,0,8.72-6.52,10.29-13.87,10.29h-4.41v14.36h-6.17v-34.69ZM192.75,156.46c3.53,0,8.08-.2,8.08-4.9,0-4.26-4.07-4.85-7.4-4.85h-4.41v9.75h3.72Z" fill="#fff"/><path d="M280.5,149.55c-2.55-2.69-4.9-3.43-7.3-3.43-7.15,0-11.91,5.49-11.91,12.4,0,7.4,4.75,12.89,11.91,12.89,2.79,0,5.49-1.27,7.79-4.21l5.1,3.62c-3.14,4.31-7.84,6.17-12.94,6.17-10.68,0-18.32-7.25-18.32-18.08s7.64-18.37,18.32-18.37c4.7,0,8.72,1.52,12.15,5.49l-4.8,3.53Z" fill="#fff"/><path d="M304.95,141.42h6.17v13.82h16.22v-13.82h6.17v34.69h-6.17v-15.29h-16.22v15.29h-6.17v-34.69Z" fill="#fff"/><path d="M355.82,141.42h6.17v34.69h-6.17v-34.69Z" fill="#fff"/><path d="M384.28,141.42h6.17v29.1h14.75v5.59h-20.92v-34.69Z" fill="#fff"/><path d="M424.42,141.42h6.17v29.1h14.75v5.59h-20.92v-34.69Z" fill="#fff"/></svg>