<?xml version="1.0" encoding="UTF-8"?><svg id="Layer_1" xmlns="http://www.w3.org/2000/svg" viewBox="0 0 403.66 36.45"><path d="M0,.88h13.67c9.11,0,17.64,5.58,17.64,17.34s-10.04,17.34-18.37,17.34H0V.88ZM10.78,29.99c7.74,0,14.06-3.33,14.06-11.76s-5.49-11.76-13.03-11.76h-5.63v23.52h4.61Z" fill="#fff"/><path d="M51.89.88h22.98v5.58h-16.81v8.53h15.92v5.58h-15.92v9.41h17.69v5.59h-23.86V.88Z" fill="#fff"/><path d="M96.53.88h22.98v5.58h-16.81v8.53h15.92v5.58h-15.92v9.41h17.69v5.59h-23.86V.88Z" fill="#fff"/><path d="M141.17.88h11.66c6.71,0,12.79,2.35,12.79,10.04,0,8.72-6.52,10.29-13.87,10.29h-4.41v14.36h-6.17V.88ZM151.06,15.92c3.53,0,8.08-.2,8.08-4.9,0-4.26-4.07-4.85-7.4-4.85h-4.41v9.75h3.72Z" fill="#fff"/><path d="M238.82,9.02c-2.55-2.69-4.9-3.43-7.3-3.43-7.15,0-11.91,5.49-11.91,12.4,0,7.4,4.75,12.89,11.91,12.89,2.79,0,5.49-1.27,7.79-4.21l5.1,3.62c-3.14,4.31-7.84,6.17-12.94,6.17-10.68,0-18.32-7.25-18.32-18.08S220.79,0,231.47,0c4.7,0,8.72,1.52,12.15,5.49l-4.8,3.53Z" fill="#fff"/><path d="M263.27.88h6.17v13.82h16.22V.88h6.17v34.69h-6.17v-15.29h-16.22v15.29h-6.17V.88Z" fill="#fff"/><path d="M314.14.88h6.17v34.69h-6.17V.88Z" fill="#fff"/><path d="M342.6.88h6.17v29.1h14.75v5.59h-20.92V.88Z" fill="#fff"/><path d="M382.74.88h6.17v29.1h14.75v5.59h-20.92V.88Z" fill="#fff"/></svg>