<?xml version="1.0" encoding="UTF-8"?><svg id="Layer_1" xmlns="http://www.w3.org/2000/svg" viewBox="0 0 472.91 106.57"><path d="M238.97,30.42c12.94-8.91,36.43-24.95,62.18-28.85,21.91-4.14,55.85-1.11,70.72,21.62,4.44,6.11,9.29,14.51,10.26,21.53-.4,5.95-9.99-.71-12.84-1.94-2.19-1.08-4.51-1.91-6.86-2.5-12.67-2.62-27.28-.55-37.23,8.28-8.62,7.62-12.82,20.97-8.67,31.28,7.4,17.15,29.15,21.47,52.42,21.6,36.24.33,77.23-10.92,102.98-25.72.51-.25.81-.35.93-.33.09.01.08.09,0,.21-1.31,1.33-2.57,1.97-5.04,3.62-20.99,13.2-52.85,21.77-78.71,25.06-15.61,2.02-30.52,3.58-45.93.72-22.22-3.51-41.17-18.63-36.03-40.73,1.42-7.24,4.9-14.13,9.94-19.5,11.41-12.71,31.4-14.14,47.22-10.23,4.75.97,2.05-1.43.58-2.81-2.58-2.29-7.71-6.36-15.3-9.71-7.81-3.52-17.1-5.91-25.27-5.93-12.07-.27-24.7,4.37-36.58,9.33-24.59,10.48-44.88,25.86-66.26,40.86-12.85,8.97-23.61,15.13-40.72,22.45-24.77,10.58-41.38,14.59-78.81,16.12-22.39.57-40.97-1.98-64.13-10.74-12.66-4.17-29.21-15.47-37.11-24.32-.21-.24-.38-.45-.5-.61-.33-.46-.21-.53.46-.15,1.61.9,3.42,2.35,5.2,3.56,24.56,17.91,52.75,25.76,84.6,24.54,61.46-2.4,108.77-39.67,148.43-66.64l.11-.07Z"/></svg>